<mxfile host="app.diagrams.net" modified="2021-07-03T04:51:48.455Z" agent="5.0 (Windows NT 10.0; Win64; x64) AppleWebKit/537.36 (KHTML, like Gecko) Chrome/91.0.4472.124 Safari/537.36" etag="MleEF3OxZAtp8IGcAbvW" version="14.8.1" type="github">
  <diagram id="_y_Mrvj1US2F2FZQUMwz" name="spdk_app">
    <mxGraphModel dx="813" dy="528" grid="1" gridSize="10" guides="1" tooltips="1" connect="1" arrows="1" fold="1" page="1" pageScale="1" pageWidth="827" pageHeight="1169" math="0" shadow="0">
      <root>
        <mxCell id="0" />
        <mxCell id="1" parent="0" />
        <mxCell id="W1dKUjukFdfiKDD8HPYc-1" value="spdk_app_start" style="rounded=1;whiteSpace=wrap;html=1;strokeWidth=2;fillWeight=4;hachureGap=8;hachureAngle=45;sketch=1;fillColor=#FFFFFF;" vertex="1" parent="1">
          <mxGeometry x="80" y="160" width="120" height="40" as="geometry" />
        </mxCell>
        <mxCell id="W1dKUjukFdfiKDD8HPYc-4" value="" style="edgeStyle=orthogonalEdgeStyle;rounded=0;orthogonalLoop=1;jettySize=auto;html=1;sketch=1;" edge="1" parent="1" source="W1dKUjukFdfiKDD8HPYc-2" target="W1dKUjukFdfiKDD8HPYc-3">
          <mxGeometry relative="1" as="geometry" />
        </mxCell>
        <mxCell id="W1dKUjukFdfiKDD8HPYc-2" value="spdk_app_opts_init" style="rounded=1;whiteSpace=wrap;html=1;strokeWidth=2;fillWeight=4;hachureGap=8;hachureAngle=45;sketch=1;fillColor=#FFFFFF;" vertex="1" parent="1">
          <mxGeometry x="80" y="40" width="120" height="40" as="geometry" />
        </mxCell>
        <mxCell id="W1dKUjukFdfiKDD8HPYc-5" value="" style="edgeStyle=orthogonalEdgeStyle;rounded=0;orthogonalLoop=1;jettySize=auto;html=1;sketch=1;" edge="1" parent="1" source="W1dKUjukFdfiKDD8HPYc-3" target="W1dKUjukFdfiKDD8HPYc-1">
          <mxGeometry relative="1" as="geometry" />
        </mxCell>
        <mxCell id="W1dKUjukFdfiKDD8HPYc-3" value="spdk_app_parse_args" style="rounded=1;whiteSpace=wrap;html=1;strokeWidth=2;fillWeight=4;hachureGap=8;hachureAngle=45;sketch=1;fillColor=#FFFFFF;" vertex="1" parent="1">
          <mxGeometry x="80" y="100" width="120" height="40" as="geometry" />
        </mxCell>
      </root>
    </mxGraphModel>
  </diagram>
</mxfile>
